<svg width="18" height="25" viewBox="0 0 18 25" fill="none" xmlns="http://www.w3.org/2000/svg">
<g clip-path="url(#clip0_704_6859)">
<path d="M12.2099 15.2716C13.8993 15.2322 14.2711 12.1666 12.6769 11.4365L10.8362 14.0697C11.0659 14.7831 11.6074 15.2716 12.2099 15.2716Z" fill="white"/>
<path d="M17.6616 11.2933C17.425 9.42056 16.7598 7.9751 15.727 7.07255C15.2459 7.76128 13.9205 9.6566 13.4203 10.3725C14.2251 10.9478 14.7403 12.062 14.7403 13.305C14.7459 16.1859 12.1103 17.7158 10.5042 15.7704C10.351 16.2174 10.1362 16.6287 9.86566 16.9856C8.79321 18.5192 5.47122 18.8899 4.05317 18.8355C4.01174 16.9604 4.29396 12.5806 5.45566 11.1686C6.04841 10.3871 6.8217 9.98632 7.60019 9.96667C8.45212 8.92697 9.63353 7.48494 10.482 6.44922C9.30346 6.85886 7.57722 7.94339 7.05071 6.91946C6.80431 6.1524 7.9245 4.37 7.04066 2.87418C6.31633 1.67454 4.69523 1.89988 3.77913 2.75217C-0.681278 6.8143 -1.2777 15.7392 2.61618 20.7041C7.38299 27.0401 15.6983 24.1696 17.5251 15.5835C17.6243 15.0431 17.9082 13.2716 17.6616 11.2933V11.2933Z" fill="white"/>
<path d="M9.86569 11.1684C10.1553 11.5505 10.3809 11.9942 10.5354 12.4772C11.1254 11.6344 14.2404 7.17652 14.7576 6.4372L17.5234 2.48058C17.8255 2.04826 17.8335 1.40848 17.5418 1.02323C17.2493 0.637992 16.7636 0.64896 16.4359 1.04883L12.391 5.98661C11.5127 7.05838 9.76584 9.19161 8.86963 10.2855C9.23202 10.4857 9.5712 10.78 9.86569 11.1684V11.1684Z" fill="white"/>
<path d="M8.57591 11.614C7.78679 11.1075 6.83051 11.2956 6.19057 12.1368C5.5296 12.9077 5.15432 15.8413 5.11621 17.4324C6.32596 17.3805 8.54466 16.8884 9.13059 16.0152C9.52347 15.4971 9.73966 14.8084 9.73966 14.0763C9.73955 13.3432 9.52312 12.6544 9.13059 12.1373V12.1368C8.96429 11.917 8.77651 11.7429 8.57591 11.614V11.614Z" fill="white"/>
</g>
<defs>
<clipPath id="clip0_704_6859">
<rect width="17.7335" height="23.3912" fill="white" transform="translate(0.0283203 0.741455)"/>
</clipPath>
</defs>
</svg>
