<svg width="75" height="33" viewBox="0 0 75 33" fill="none" xmlns="http://www.w3.org/2000/svg">
<rect width="75" height="32.1429" rx="16.0714" fill="#5D56F3"/>
<path d="M16.1623 6.28955C10.8415 6.28955 6.51257 10.6185 6.51257 15.9393C6.51257 21.2601 10.8415 25.589 16.1623 25.589C21.4831 25.589 25.812 21.2601 25.812 15.9393C25.812 10.6185 21.4831 6.28955 16.1623 6.28955ZM17.6469 20.393H14.6777C14.4808 20.393 14.292 20.3148 14.1528 20.1756C14.0136 20.0364 13.9354 19.8476 13.9354 19.6507C13.9354 19.4538 14.0136 19.265 14.1528 19.1258C14.292 18.9866 14.4808 18.9084 14.6777 18.9084H17.6469C17.8437 18.9084 18.0325 18.9866 18.1717 19.1258C18.3109 19.265 18.3891 19.4538 18.3891 19.6507C18.3891 19.8476 18.3109 20.0364 18.1717 20.1756C18.0325 20.3148 17.8437 20.393 17.6469 20.393ZM19.8737 17.4238H12.4509C12.254 17.4238 12.0652 17.3456 11.926 17.2064C11.7868 17.0672 11.7086 16.8784 11.7086 16.6815C11.7086 16.4847 11.7868 16.2959 11.926 16.1567C12.0652 16.0175 12.254 15.9393 12.4509 15.9393H19.8737C20.0706 15.9393 20.2594 16.0175 20.3986 16.1567C20.5378 16.2959 20.616 16.4847 20.616 16.6815C20.616 16.8784 20.5378 17.0672 20.3986 17.2064C20.2594 17.3456 20.0706 17.4238 19.8737 17.4238ZM21.3583 14.4547H10.9663C10.7694 14.4547 10.5806 14.3765 10.4414 14.2373C10.3022 14.0981 10.224 13.9093 10.224 13.7124C10.224 13.5155 10.3022 13.3267 10.4414 13.1875C10.5806 13.0483 10.7694 12.9701 10.9663 12.9701H21.3583C21.5551 12.9701 21.744 13.0483 21.8832 13.1875C22.0224 13.3267 22.1006 13.5155 22.1006 13.7124C22.1006 13.9093 22.0224 14.0981 21.8832 14.2373C21.744 14.3765 21.5551 14.4547 21.3583 14.4547Z" fill="#A29EF0"/>
<path d="M32.6808 20.7449V12.2049H37.492V13.131H33.6911V16.0659H37.1432V16.9921H33.6911V20.7449H32.6808ZM40.1054 12.7221C40.1054 12.8424 40.0733 12.9546 40.0092 13.0589C39.9531 13.1551 39.8729 13.2353 39.7686 13.2994C39.6724 13.3556 39.5642 13.3836 39.4439 13.3836C39.3236 13.3836 39.2113 13.3556 39.1071 13.2994C39.0109 13.2353 38.9307 13.1551 38.8665 13.0589C38.8104 12.9546 38.7823 12.8424 38.7823 12.7221C38.7823 12.6018 38.8104 12.4935 38.8665 12.3973C38.9307 12.2931 39.0109 12.2129 39.1071 12.1568C39.2113 12.0926 39.3236 12.0605 39.4439 12.0605C39.5642 12.0605 39.6724 12.0926 39.7686 12.1568C39.8729 12.2129 39.9531 12.2931 40.0092 12.3973C40.0733 12.4935 40.1054 12.6018 40.1054 12.7221ZM38.9627 20.7449V14.5383H39.925V20.7449H38.9627ZM41.6057 20.7449V11.82H42.5679V20.7449H41.6057ZM46.57 20.9253C46.1931 20.9253 45.8684 20.8491 45.5957 20.6968C45.3231 20.5444 45.1106 20.3199 44.9582 20.0232C44.8139 19.7265 44.7417 19.3656 44.7417 18.9406V15.3563H43.599V14.5383H44.7417V12.4575H45.704V14.5383H47.6525V15.3563H45.704V18.8925C45.704 19.2614 45.7801 19.5501 45.9325 19.7586C46.0929 19.959 46.3334 20.0593 46.6542 20.0593C46.8226 20.0593 46.991 20.0352 47.1594 19.9871C47.3358 19.931 47.4922 19.8588 47.6285 19.7706L47.9172 20.5163C47.7488 20.6366 47.5523 20.7328 47.3278 20.805C47.1032 20.8852 46.8507 20.9253 46.57 20.9253ZM51.8556 20.9253C51.3986 20.9253 50.9776 20.8451 50.5927 20.6847C50.2158 20.5244 49.887 20.2998 49.6064 20.0112C49.3257 19.7145 49.1092 19.3697 48.9568 18.9767C48.8045 18.5758 48.7283 18.1348 48.7283 17.6536C48.7283 17.1805 48.8005 16.7475 48.9448 16.3546C49.0972 15.9537 49.3057 15.6048 49.5703 15.3081C49.8429 15.0114 50.1597 14.7829 50.5205 14.6225C50.8813 14.4541 51.2743 14.3699 51.6993 14.3699C52.1082 14.3699 52.4851 14.4461 52.8299 14.5985C53.1827 14.7508 53.4874 14.9633 53.744 15.236C54.0006 15.5086 54.1971 15.8334 54.3334 16.2103C54.4778 16.5871 54.5499 16.9961 54.5499 17.4371V17.8341H49.7266C49.7587 18.2831 49.863 18.676 50.0394 19.0128C50.2238 19.3496 50.4684 19.6102 50.7731 19.7946C51.0778 19.9791 51.4306 20.0713 51.8316 20.0713C52.2245 20.0713 52.5653 19.9911 52.854 19.8307C53.1507 19.6623 53.4033 19.4178 53.6117 19.097L54.4297 19.4699C54.2693 19.7746 54.0608 20.0352 53.8042 20.2517C53.5476 20.4682 53.2509 20.6326 52.9141 20.7449C52.5853 20.8652 52.2325 20.9253 51.8556 20.9253ZM51.6993 15.1879C51.3705 15.1879 51.0698 15.268 50.7971 15.4284C50.5325 15.5888 50.308 15.8133 50.1236 16.102C49.9472 16.3827 49.8309 16.7114 49.7748 17.0883H53.5396C53.5075 16.7114 53.4073 16.3827 53.2389 16.102C53.0705 15.8133 52.854 15.5888 52.5893 15.4284C52.3247 15.268 52.028 15.1879 51.6993 15.1879ZM55.9243 20.7449V14.5383H56.7904L56.8505 15.693C57.0029 15.3081 57.2314 15.0074 57.5361 14.7909C57.8408 14.5664 58.1977 14.4541 58.6066 14.4541C58.7429 14.4541 58.8632 14.4662 58.9675 14.4902C59.0797 14.5063 59.176 14.5303 59.2561 14.5624L59.1359 15.4765C59.0477 15.4445 58.9554 15.4244 58.8592 15.4164C58.763 15.4004 58.6668 15.3923 58.5705 15.3923C58.2338 15.3923 57.9371 15.4765 57.6805 15.6449C57.4319 15.8133 57.2354 16.0539 57.0911 16.3666C56.9548 16.6713 56.8866 17.0322 56.8866 17.4492V20.7449H55.9243ZM62.3955 20.9253C62.0347 20.9253 61.6939 20.8652 61.3731 20.7449C61.0604 20.6246 60.7877 20.4522 60.5552 20.2277C60.3226 20.0031 60.1462 19.7385 60.0259 19.4338L60.892 19.1211C61.0524 19.4258 61.2608 19.6623 61.5174 19.8307C61.774 19.9991 62.0667 20.0833 62.3955 20.0833C62.6601 20.0833 62.8927 20.0392 63.0931 19.951C63.2936 19.8628 63.45 19.7425 63.5622 19.5902C63.6745 19.4298 63.7306 19.2534 63.7306 19.0609C63.7306 18.5397 63.3537 18.2029 62.6 18.0506L62.1309 17.9543C61.4733 17.826 60.9882 17.6175 60.6755 17.3289C60.3627 17.0322 60.2064 16.6593 60.2064 16.2103C60.2064 15.8494 60.2986 15.5287 60.483 15.248C60.6675 14.9673 60.9241 14.7508 61.2528 14.5985C61.5896 14.4381 61.9705 14.3579 62.3955 14.3579C62.7483 14.3579 63.0731 14.4181 63.3698 14.5383C63.6665 14.6506 63.9191 14.819 64.1276 15.0435C64.3441 15.268 64.5084 15.5327 64.6207 15.8374L63.7547 16.1261C63.6264 15.8294 63.4419 15.6008 63.2014 15.4405C62.9688 15.2721 62.6962 15.1879 62.3835 15.1879C62.1429 15.1879 61.9304 15.228 61.746 15.3081C61.5696 15.3883 61.4292 15.4966 61.325 15.6329C61.2207 15.7692 61.1686 15.9296 61.1686 16.114C61.1686 16.3706 61.2648 16.5751 61.4573 16.7275C61.6578 16.8798 61.9785 17.0001 62.4196 17.0883L62.8887 17.1845C63.482 17.3048 63.9351 17.5173 64.2478 17.822C64.5606 18.1187 64.7169 18.4996 64.7169 18.9647C64.7169 19.2534 64.6568 19.518 64.5365 19.7586C64.4242 19.9911 64.2639 20.1956 64.0554 20.372C63.8549 20.5484 63.6103 20.6847 63.3217 20.781C63.041 20.8772 62.7323 20.9253 62.3955 20.9253Z" fill="white"/>
</svg>
